# xmcd
#
# Track frame offsets: 
#        150
#        16251
#        33105
#        52915
#        90257
#        102258
#        120513
#        135684
#        158992
#        179016
#        202436
#
# Disc length: 3163 seconds
#
# Revision: 0
# Processed by: cddbd v1.4PL0 Copyright (c) Steve Scherf et al.
# Submitted via: ExactAudioCopy v0.95a3
#
DISCID=8c0c590b
DTITLE=Moe Joe - Chicago Ýstanbul Mainline
DYEAR=1900
DGENRE=
TTITLE0=Black Coffee Blues
TTITLE1=Lonesome Grassman
TTITLE2=Sunlight
TTITLE3=Born In Ýzmir
TTITLE4=Come On Home
TTITLE5=Blues Is A Raindown
TTITLE6=Spank Ma Money
TTITLE7=Two Trains Runnin' Two Bears Ridin'
TTITLE8=Roosters And Pigeons
TTITLE9=I Believe
TTITLE10=Sundown
EXTD=
EXTT0=
EXTT1=
EXTT2=
EXTT3=
EXTT4=
EXTT5=
EXTT6=
EXTT7=
EXTT8=
EXTT9=
EXTT10=
PLAYORDER=
